REM GoldWave
FILE "Зазнобин В.М. Восток дело тонкое, образование, МКФС, молодёжь (15 июня 2006 г.).m4a" BINARY
  TRACK 01 AUDIO
    TITLE "00:00:00.00000"
    PERFORMER "Владимир Михайлович Зазнобин. Видеоархив"
    INDEX 01 00:00:00
  TRACK 02 AUDIO
    TITLE "00:00:14.95590"
    PERFORMER "Владимир Михайлович Зазнобин. Видеоархив"
    INDEX 01 00:14:72
  TRACK 03 AUDIO
    TITLE "00:00:28.44104"
    PERFORMER "Владимир Михайлович Зазнобин. Видеоархив"
    INDEX 01 00:28:33
  TRACK 04 AUDIO
    TITLE "00:00:42.78068"
    PERFORMER "Владимир Михайлович Зазнобин. Видеоархив"
    INDEX 01 00:42:59
  TRACK 05 AUDIO
    TITLE "00:00:55.27574"
    PERFORMER "Владимир Михайлович Зазнобин. Видеоархив"
    INDEX 01 00:55:21
  TRACK 06 AUDIO
    TITLE "00:01:08.06522"
    PERFORMER "Владимир Михайлович Зазнобин. Видеоархив"
    INDEX 01 01:08:05
  TRACK 07 AUDIO
    TITLE "00:01:21.33905"
    PERFORMER "Владимир Михайлович Зазнобин. Видеоархив"
    INDEX 01 01:21:25
  TRACK 08 AUDIO
    TITLE "00:01:33.96925"
    PERFORMER "Владимир Михайлович Зазнобин. Видеоархив"
    INDEX 01 01:33:73
  TRACK 09 AUDIO
    TITLE "00:01:46.59293"
    PERFORMER "Владимир Михайлович Зазнобин. Видеоархив"
    INDEX 01 01:46:44
  TRACK 10 AUDIO
    TITLE "00:01:59.63041"
    PERFORMER "Владимир Михайлович Зазнобин. Видеоархив"
    INDEX 01 01:59:47
  TRACK 11 AUDIO
    TITLE "00:02:13.08073"
    PERFORMER "Владимир Михайлович Зазнобин. Видеоархив"
    INDEX 01 02:13:06
  TRACK 12 AUDIO
    TITLE "00:02:28.92642"
    PERFORMER "Владимир Михайлович Зазнобин. Видеоархив"
    INDEX 01 02:28:69
  TRACK 13 AUDIO
    TITLE "00:02:42.70458"
    PERFORMER "Владимир Михайлович Зазнобин. Видеоархив"
    INDEX 01 02:42:53
  TRACK 14 AUDIO
    TITLE "00:02:55.78803"
    PERFORMER "Владимир Михайлович Зазнобин. Видеоархив"
    INDEX 01 02:55:59
  TRACK 15 AUDIO
    TITLE "00:03:10.00601"
    PERFORMER "Владимир Михайлович Зазнобин. Видеоархив"
    INDEX 01 03:10:00
  TRACK 16 AUDIO
    TITLE "00:03:25.48900"
    PERFORMER "Владимир Михайлович Зазнобин. Видеоархив"
    INDEX 01 03:25:37
  TRACK 17 AUDIO
    TITLE "00:03:38.38249"
    PERFORMER "Владимир Михайлович Зазнобин. Видеоархив"
    INDEX 01 03:38:29
  TRACK 18 AUDIO
    TITLE "00:03:50.96857"
    PERFORMER "Владимир Михайлович Зазнобин. Видеоархив"
    INDEX 01 03:50:73
  TRACK 19 AUDIO
    TITLE "00:04:03.64753"
    PERFORMER "Владимир Михайлович Зазнобин. Видеоархив"
    INDEX 01 04:03:49
  TRACK 20 AUDIO
    TITLE "00:04:17.89476"
    PERFORMER "Владимир Михайлович Зазнобин. Видеоархив"
    INDEX 01 04:17:67
  TRACK 21 AUDIO
    TITLE "00:04:30.83424"
    PERFORMER "Владимир Михайлович Зазнобин. Видеоархив"
    INDEX 01 04:30:63
  TRACK 22 AUDIO
    TITLE "00:04:44.18982"
    PERFORMER "Владимир Михайлович Зазнобин. Видеоархив"
    INDEX 01 04:44:14
  TRACK 23 AUDIO
    TITLE "00:04:57.60948"
    PERFORMER "Владимир Михайлович Зазнобин. Видеоархив"
    INDEX 01 04:57:46
  TRACK 24 AUDIO
    TITLE "00:05:10.15562"
    PERFORMER "Владимир Михайлович Зазнобин. Видеоархив"
    INDEX 01 05:10:12
  TRACK 25 AUDIO
    TITLE "00:05:22.61118"
    PERFORMER "Владимир Михайлович Зазнобин. Видеоархив"
    INDEX 01 05:22:46
  TRACK 26 AUDIO
    TITLE "00:05:35.07558"
    PERFORMER "Владимир Михайлович Зазнобин. Видеоархив"
    INDEX 01 05:35:06
  TRACK 27 AUDIO
    TITLE "00:05:49.91726"
    PERFORMER "Владимир Михайлович Зазнобин. Видеоархив"
    INDEX 01 05:49:69
  TRACK 28 AUDIO
    TITLE "00:06:03.01229"
    PERFORMER "Владимир Михайлович Зазнобин. Видеоархив"
    INDEX 01 06:03:01
  TRACK 29 AUDIO
    TITLE "00:06:16.39621"
    PERFORMER "Владимир Михайлович Зазнобин. Видеоархив"
    INDEX 01 06:16:30
  TRACK 30 AUDIO
    TITLE "00:06:28.90937"
    PERFORMER "Владимир Михайлович Зазнобин. Видеоархив"
    INDEX 01 06:28:68
  TRACK 31 AUDIO
    TITLE "00:06:43.05442"
    PERFORMER "Владимир Михайлович Зазнобин. Видеоархив"
    INDEX 01 06:43:04
  TRACK 32 AUDIO
    TITLE "00:06:56.81497"
    PERFORMER "Владимир Михайлович Зазнобин. Видеоархив"
    INDEX 01 06:56:61
  TRACK 33 AUDIO
    TITLE "00:07:09.44934"
    PERFORMER "Владимир Михайлович Зазнобин. Видеоархив"
    INDEX 01 07:09:34
  TRACK 34 AUDIO
    TITLE "00:07:23.52381"
    PERFORMER "Владимир Михайлович Зазнобин. Видеоархив"
    INDEX 01 07:23:39
  TRACK 35 AUDIO
    TITLE "00:07:36.67365"
    PERFORMER "Владимир Михайлович Зазнобин. Видеоархив"
    INDEX 01 07:36:51
  TRACK 36 AUDIO
    TITLE "00:07:49.60478"
    PERFORMER "Владимир Михайлович Зазнобин. Видеоархив"
    INDEX 01 07:49:45
  TRACK 37 AUDIO
    TITLE "00:08:02.08451"
    PERFORMER "Владимир Михайлович Зазнобин. Видеоархив"
    INDEX 01 08:02:06
  TRACK 38 AUDIO
    TITLE "00:08:15.21717"
    PERFORMER "Владимир Михайлович Зазнобин. Видеоархив"
    INDEX 01 08:15:16
  TRACK 39 AUDIO
    TITLE "00:08:27.87800"
    PERFORMER "Владимир Михайлович Зазнобин. Видеоархив"
    INDEX 01 08:27:66
  TRACK 40 AUDIO
    TITLE "00:08:41.90234"
    PERFORMER "Владимир Михайлович Зазнобин. Видеоархив"
    INDEX 01 08:41:68
  TRACK 41 AUDIO
    TITLE "00:08:55.68422"
    PERFORMER "Владимир Михайлович Зазнобин. Видеоархив"
    INDEX 01 08:55:51
  TRACK 42 AUDIO
    TITLE "00:09:10.83331"
    PERFORMER "Владимир Михайлович Зазнобин. Видеоархив"
    INDEX 01 09:10:62
  TRACK 43 AUDIO
    TITLE "00:09:23.71986"
    PERFORMER "Владимир Михайлович Зазнобин. Видеоархив"
    INDEX 01 09:23:54
  TRACK 44 AUDIO
    TITLE "00:09:36.54694"
    PERFORMER "Владимир Михайлович Зазнобин. Видеоархив"
    INDEX 01 09:36:41
  TRACK 45 AUDIO
    TITLE "00:09:49.53333"
    PERFORMER "Владимир Михайлович Зазнобин. Видеоархив"
    INDEX 01 09:49:40
  TRACK 46 AUDIO
    TITLE "00:10:02.32698"
    PERFORMER "Владимир Михайлович Зазнобин. Видеоархив"
    INDEX 01 10:02:25
  TRACK 47 AUDIO
    TITLE "00:10:15.72900"
    PERFORMER "Владимир Михайлович Зазнобин. Видеоархив"
    INDEX 01 10:15:55
  TRACK 48 AUDIO
    TITLE "00:10:28.75068"
    PERFORMER "Владимир Михайлович Зазнобин. Видеоархив"
    INDEX 01 10:28:56
  TRACK 49 AUDIO
    TITLE "00:10:42.62222"
    PERFORMER "Владимир Михайлович Зазнобин. Видеоархив"
    INDEX 01 10:42:47
  TRACK 50 AUDIO
    TITLE "00:10:56.39111"
    PERFORMER "Владимир Михайлович Зазнобин. Видеоархив"
    INDEX 01 10:56:29
  TRACK 51 AUDIO
    TITLE "00:11:09.13601"
    PERFORMER "Владимир Михайлович Зазнобин. Видеоархив"
    INDEX 01 11:09:10
  TRACK 52 AUDIO
    TITLE "00:11:22.52735"
    PERFORMER "Владимир Михайлович Зазнобин. Видеоархив"
    INDEX 01 11:22:40
  TRACK 53 AUDIO
    TITLE "00:11:36.53959"
    PERFORMER "Владимир Михайлович Зазнобин. Видеоархив"
    INDEX 01 11:36:40
  TRACK 54 AUDIO
    TITLE "00:11:50.53930"
    PERFORMER "Владимир Михайлович Зазнобин. Видеоархив"
    INDEX 01 11:50:40
  TRACK 55 AUDIO
    TITLE "00:12:03.79039"
    PERFORMER "Владимир Михайлович Зазнобин. Видеоархив"
    INDEX 01 12:03:59
  TRACK 56 AUDIO
    TITLE "00:12:16.43590"
    PERFORMER "Владимир Михайлович Зазнобин. Видеоархив"
    INDEX 01 12:16:33
  TRACK 57 AUDIO
    TITLE "00:12:29.59039"
    PERFORMER "Владимир Михайлович Зазнобин. Видеоархив"
    INDEX 01 12:29:44
  TRACK 58 AUDIO
    TITLE "00:12:43.06578"
    PERFORMER "Владимир Михайлович Зазнобин. Видеоархив"
    INDEX 01 12:43:05
  TRACK 59 AUDIO
    TITLE "00:12:57.37617"
    PERFORMER "Владимир Михайлович Зазнобин. Видеоархив"
    INDEX 01 12:57:28
  TRACK 60 AUDIO
    TITLE "00:13:10.82927"
    PERFORMER "Владимир Михайлович Зазнобин. Видеоархив"
    INDEX 01 13:10:62
  TRACK 61 AUDIO
    TITLE "00:13:23.56118"
    PERFORMER "Владимир Михайлович Зазнобин. Видеоархив"
    INDEX 01 13:23:42
  TRACK 62 AUDIO
    TITLE "00:13:36.60701"
    PERFORMER "Владимир Михайлович Зазнобин. Видеоархив"
    INDEX 01 13:36:46
  TRACK 63 AUDIO
    TITLE "00:13:50.94061"
    PERFORMER "Владимир Михайлович Зазнобин. Видеоархив"
    INDEX 01 13:50:71
  TRACK 64 AUDIO
    TITLE "00:14:03.88009"
    PERFORMER "Владимир Михайлович Зазнобин. Видеоархив"
    INDEX 01 14:03:66
  TRACK 65 AUDIO
    TITLE "00:14:16.69837"
    PERFORMER "Владимир Михайлович Зазнобин. Видеоархив"
    INDEX 01 14:16:52
  TRACK 66 AUDIO
    TITLE "00:14:29.32624"
    PERFORMER "Владимир Михайлович Зазнобин. Видеоархив"
    INDEX 01 14:29:24
  TRACK 67 AUDIO
    TITLE "00:14:41.75302"
    PERFORMER "Владимир Михайлович Зазнобин. Видеоархив"
    INDEX 01 14:41:56
  TRACK 68 AUDIO
    TITLE "00:14:54.19975"
    PERFORMER "Владимир Михайлович Зазнобин. Видеоархив"
    INDEX 01 14:54:15
  TRACK 69 AUDIO
    TITLE "00:15:07.02918"
    PERFORMER "Владимир Михайлович Зазнобин. Видеоархив"
    INDEX 01 15:07:02
  TRACK 70 AUDIO
    TITLE "00:15:20.32531"
    PERFORMER "Владимир Михайлович Зазнобин. Видеоархив"
    INDEX 01 15:20:24
  TRACK 71 AUDIO
    TITLE "00:15:36.17519"
    PERFORMER "Владимир Михайлович Зазнобин. Видеоархив"
    INDEX 01 15:36:13
  TRACK 72 AUDIO
    TITLE "00:15:48.70134"
    PERFORMER "Владимир Михайлович Зазнобин. Видеоархив"
    INDEX 01 15:48:53
  TRACK 73 AUDIO
    TITLE "00:16:01.27859"
    PERFORMER "Владимир Михайлович Зазнобин. Видеоархив"
    INDEX 01 16:01:21
  TRACK 74 AUDIO
    TITLE "00:16:13.65662"
    PERFORMER "Владимир Михайлович Зазнобин. Видеоархив"
    INDEX 01 16:13:49
  TRACK 75 AUDIO
    TITLE "00:16:27.16544"
    PERFORMER "Владимир Михайлович Зазнобин. Видеоархив"
    INDEX 01 16:27:12
  TRACK 76 AUDIO
    TITLE "00:16:41.58914"
    PERFORMER "Владимир Михайлович Зазнобин. Видеоархив"
    INDEX 01 16:41:44
  TRACK 77 AUDIO
    TITLE "00:16:54.65029"
    PERFORMER "Владимир Михайлович Зазнобин. Видеоархив"
    INDEX 01 16:54:49
  TRACK 78 AUDIO
    TITLE "00:17:07.92601"
    PERFORMER "Владимир Михайлович Зазнобин. Видеоархив"
    INDEX 01 17:07:69
  TRACK 79 AUDIO
    TITLE "00:17:22.23918"
    PERFORMER "Владимир Михайлович Зазнобин. Видеоархив"
    INDEX 01 17:22:18
  TRACK 80 AUDIO
    TITLE "00:17:34.83639"
    PERFORMER "Владимир Михайлович Зазнобин. Видеоархив"
    INDEX 01 17:34:63
  TRACK 81 AUDIO
    TITLE "00:17:48.23889"
    PERFORMER "Владимир Михайлович Зазнобин. Видеоархив"
    INDEX 01 17:48:18
  TRACK 82 AUDIO
    TITLE "00:18:01.10313"
    PERFORMER "Владимир Михайлович Зазнобин. Видеоархив"
    INDEX 01 18:01:08
  TRACK 83 AUDIO
    TITLE "00:18:13.57404"
    PERFORMER "Владимир Михайлович Зазнобин. Видеоархив"
    INDEX 01 18:13:43
  TRACK 84 AUDIO
    TITLE "00:18:26.12247"
    PERFORMER "Владимир Михайлович Зазнобин. Видеоархив"
    INDEX 01 18:26:09
  TRACK 85 AUDIO
    TITLE "00:18:38.69973"
    PERFORMER "Владимир Михайлович Зазнобин. Видеоархив"
    INDEX 01 18:38:52
  TRACK 86 AUDIO
    TITLE "00:18:52.81181"
    PERFORMER "Владимир Михайлович Зазнобин. Видеоархив"
    INDEX 01 18:52:61
  TRACK 87 AUDIO
    TITLE "00:19:05.44850"
    PERFORMER "Владимир Михайлович Зазнобин. Видеоархив"
    INDEX 01 19:05:34
  TRACK 88 AUDIO
    TITLE "00:19:19.74170"
    PERFORMER "Владимир Михайлович Зазнобин. Видеоархив"
    INDEX 01 19:19:56
  TRACK 89 AUDIO
    TITLE "00:19:32.21494"
    PERFORMER "Владимир Михайлович Зазнобин. Видеоархив"
    INDEX 01 19:32:16
  TRACK 90 AUDIO
    TITLE "00:19:45.58166"
    PERFORMER "Владимир Михайлович Зазнобин. Видеоархив"
    INDEX 01 19:45:44
  TRACK 91 AUDIO
    TITLE "00:19:58.47748"
    PERFORMER "Владимир Михайлович Зазнобин. Видеоархив"
    INDEX 01 19:58:36
  TRACK 92 AUDIO
    TITLE "00:20:11.16943"
    PERFORMER "Владимир Михайлович Зазнобин. Видеоархив"
    INDEX 01 20:11:13
  TRACK 93 AUDIO
    TITLE "00:20:23.68027"
    PERFORMER "Владимир Михайлович Зазнобин. Видеоархив"
    INDEX 01 20:23:51
  TRACK 94 AUDIO
    TITLE "00:20:36.75537"
    PERFORMER "Владимир Михайлович Зазнобин. Видеоархив"
    INDEX 01 20:36:57
  TRACK 95 AUDIO
    TITLE "00:20:49.57549"
    PERFORMER "Владимир Михайлович Зазнобин. Видеоархив"
    INDEX 01 20:49:43
  TRACK 96 AUDIO
    TITLE "00:21:04.26342"
    PERFORMER "Владимир Михайлович Зазнобин. Видеоархив"
    INDEX 01 21:04:20
  TRACK 97 AUDIO
    TITLE "00:21:19.27553"
    PERFORMER "Владимир Михайлович Зазнобин. Видеоархив"
    INDEX 01 21:19:21
  TRACK 98 AUDIO
    TITLE "00:21:32.42213"
    PERFORMER "Владимир Михайлович Зазнобин. Видеоархив"
    INDEX 01 21:32:32
  TRACK 99 AUDIO
    TITLE "00:21:45.03236"
    PERFORMER "Владимир Михайлович Зазнобин. Видеоархив"
    INDEX 01 21:45:02
  TRACK 100 AUDIO
    TITLE "00:21:57.78884"
    PERFORMER "Владимир Михайлович Зазнобин. Видеоархив"
    INDEX 01 21:57:59
  TRACK 101 AUDIO
    TITLE "00:22:11.76580"
    PERFORMER "Владимир Михайлович Зазнобин. Видеоархив"
    INDEX 01 22:11:57
  TRACK 102 AUDIO
    TITLE "00:22:24.95791"
    PERFORMER "Владимир Михайлович Зазнобин. Видеоархив"
    INDEX 01 22:24:72
  TRACK 103 AUDIO
    TITLE "00:22:38.80714"
    PERFORMER "Владимир Михайлович Зазнобин. Видеоархив"
    INDEX 01 22:38:61
  TRACK 104 AUDIO
    TITLE "00:22:53.61073"
    PERFORMER "Владимир Михайлович Зазнобин. Видеоархив"
    INDEX 01 22:53:46
  TRACK 105 AUDIO
    TITLE "00:23:06.13458"
    PERFORMER "Владимир Михайлович Зазнобин. Видеоархив"
    INDEX 01 23:06:10
  TRACK 106 AUDIO
    TITLE "00:23:18.72946"
    PERFORMER "Владимир Михайлович Зазнобин. Видеоархив"
    INDEX 01 23:18:55
  TRACK 107 AUDIO
    TITLE "00:23:31.95501"
    PERFORMER "Владимир Михайлович Зазнобин. Видеоархив"
    INDEX 01 23:31:72
  TRACK 108 AUDIO
    TITLE "00:23:46.91882"
    PERFORMER "Владимир Михайлович Зазнобин. Видеоархив"
    INDEX 01 23:46:69
  TRACK 109 AUDIO
    TITLE "00:24:00.53492"
    PERFORMER "Владимир Михайлович Зазнобин. Видеоархив"
    INDEX 01 24:00:40
  TRACK 110 AUDIO
    TITLE "00:24:14.38834"
    PERFORMER "Владимир Михайлович Зазнобин. Видеоархив"
    INDEX 01 24:14:29
  TRACK 111 AUDIO
    TITLE "00:24:27.15274"
    PERFORMER "Владимир Михайлович Зазнобин. Видеоархив"
    INDEX 01 24:27:11
  TRACK 112 AUDIO
    TITLE "00:24:39.67472"
    PERFORMER "Владимир Михайлович Зазнобин. Видеоархив"
    INDEX 01 24:39:51
  TRACK 113 AUDIO
    TITLE "00:24:52.96390"
    PERFORMER "Владимир Михайлович Зазнобин. Видеоархив"
    INDEX 01 24:52:72
  TRACK 114 AUDIO
    TITLE "00:25:05.86204"
    PERFORMER "Владимир Михайлович Зазнобин. Видеоархив"
    INDEX 01 25:05:65
  TRACK 115 AUDIO
    TITLE "00:25:18.65803"
    PERFORMER "Владимир Михайлович Зазнобин. Видеоархив"
    INDEX 01 25:18:49
  TRACK 116 AUDIO
    TITLE "00:25:32.43202"
    PERFORMER "Владимир Михайлович Зазнобин. Видеоархив"
    INDEX 01 25:32:32
  TRACK 117 AUDIO
    TITLE "00:25:45.08823"
    PERFORMER "Владимир Михайлович Зазнобин. Видеоархив"
    INDEX 01 25:45:07
  TRACK 118 AUDIO
    TITLE "00:25:58.44660"
    PERFORMER "Владимир Михайлович Зазнобин. Видеоархив"
    INDEX 01 25:58:33
  TRACK 119 AUDIO
    TITLE "00:26:11.12274"
    PERFORMER "Владимир Михайлович Зазнобин. Видеоархив"
    INDEX 01 26:11:09
  TRACK 120 AUDIO
    TITLE "00:26:23.87694"
    PERFORMER "Владимир Михайлович Зазнобин. Видеоархив"
    INDEX 01 26:23:66
  TRACK 121 AUDIO
    TITLE "00:26:36.81456"
    PERFORMER "Владимир Михайлович Зазнобин. Видеоархив"
    INDEX 01 26:36:61
  TRACK 122 AUDIO
    TITLE "00:26:50.05776"
    PERFORMER "Владимир Михайлович Зазнобин. Видеоархив"
    INDEX 01 26:50:04
  TRACK 123 AUDIO
    TITLE "00:27:05.13209"
    PERFORMER "Владимир Михайлович Зазнобин. Видеоархив"
    INDEX 01 27:05:10
  TRACK 124 AUDIO
    TITLE "00:27:20.13116"
    PERFORMER "Владимир Михайлович Зазнобин. Видеоархив"
    INDEX 01 27:20:10
  TRACK 125 AUDIO
    TITLE "00:27:33.74680"
    PERFORMER "Владимир Михайлович Зазнобин. Видеоархив"
    INDEX 01 27:33:56
  TRACK 126 AUDIO
    TITLE "00:27:47.95410"
    PERFORMER "Владимир Михайлович Зазнобин. Видеоархив"
    INDEX 01 27:47:72
  TRACK 127 AUDIO
    TITLE "00:28:01.21401"
    PERFORMER "Владимир Михайлович Зазнобин. Видеоархив"
    INDEX 01 28:01:16
  TRACK 128 AUDIO
    TITLE "00:28:13.89297"
    PERFORMER "Владимир Михайлович Зазнобин. Видеоархив"
    INDEX 01 28:13:67
  TRACK 129 AUDIO
    TITLE "00:28:27.12687"
    PERFORMER "Владимир Михайлович Зазнобин. Видеоархив"
    INDEX 01 28:27:10
  TRACK 130 AUDIO
    TITLE "00:28:39.49608"
    PERFORMER "Владимир Михайлович Зазнобин. Видеоархив"
    INDEX 01 28:39:37
  TRACK 131 AUDIO
    TITLE "00:28:52.15971"
    PERFORMER "Владимир Михайлович Зазнобин. Видеоархив"
    INDEX 01 28:52:12
  TRACK 132 AUDIO
    TITLE "00:29:04.83633"
    PERFORMER "Владимир Михайлович Зазнобин. Видеоархив"
    INDEX 01 29:04:63
  TRACK 133 AUDIO
    TITLE "00:29:18.73850"
    PERFORMER "Владимир Михайлович Зазнобин. Видеоархив"
    INDEX 01 29:18:55
  TRACK 134 AUDIO
    TITLE "00:29:32.08526"
    PERFORMER "Владимир Михайлович Зазнобин. Видеоархив"
    INDEX 01 29:32:06
  TRACK 135 AUDIO
    TITLE "00:29:45.20633"
    PERFORMER "Владимир Михайлович Зазнобин. Видеоархив"
    INDEX 01 29:45:15
  TRACK 136 AUDIO
    TITLE "00:29:58.58188"
    PERFORMER "Владимир Михайлович Зазнобин. Видеоархив"
    INDEX 01 29:58:44
  TRACK 137 AUDIO
    TITLE "00:30:11.76052"
    PERFORMER "Владимир Михайлович Зазнобин. Видеоархив"
    INDEX 01 30:11:57
  TRACK 138 AUDIO
    TITLE "00:30:24.72880"
    PERFORMER "Владимир Михайлович Зазнобин. Видеоархив"
    INDEX 01 30:24:55
  TRACK 139 AUDIO
    TITLE "00:30:37.56472"
    PERFORMER "Владимир Михайлович Зазнобин. Видеоархив"
    INDEX 01 30:37:42
  TRACK 140 AUDIO
    TITLE "00:30:52.73005"
    PERFORMER "Владимир Михайлович Зазнобин. Видеоархив"
    INDEX 01 30:52:55
  TRACK 141 AUDIO
    TITLE "00:31:05.58732"
    PERFORMER "Владимир Михайлович Зазнобин. Видеоархив"
    INDEX 01 31:05:44
  TRACK 142 AUDIO
    TITLE "00:31:19.08039"
    PERFORMER "Владимир Михайлович Зазнобин. Видеоархив"
    INDEX 01 31:19:06
  TRACK 143 AUDIO
    TITLE "00:31:32.86088"
    PERFORMER "Владимир Михайлович Зазнобин. Видеоархив"
    INDEX 01 31:32:65
  TRACK 144 AUDIO
    TITLE "00:31:45.46832"
    PERFORMER "Владимир Михайлович Зазнобин. Видеоархив"
    INDEX 01 31:45:35
  TRACK 145 AUDIO
    TITLE "00:31:57.83984"
    PERFORMER "Владимир Михайлович Зазнобин. Видеоархив"
    INDEX 01 31:57:63
  TRACK 146 AUDIO
    TITLE "00:32:11.97467"
    PERFORMER "Владимир Михайлович Зазнобин. Видеоархив"
    INDEX 01 32:11:73
  TRACK 147 AUDIO
    TITLE "00:32:25.04000"
    PERFORMER "Владимир Михайлович Зазнобин. Видеоархив"
    INDEX 01 32:25:03
  TRACK 148 AUDIO
    TITLE "00:32:38.14993"
    PERFORMER "Владимир Михайлович Зазнобин. Видеоархив"
    INDEX 01 32:38:11
  TRACK 149 AUDIO
    TITLE "00:32:51.33971"
    PERFORMER "Владимир Михайлович Зазнобин. Видеоархив"
    INDEX 01 32:51:25
  TRACK 150 AUDIO
    TITLE "00:33:04.22671"
    PERFORMER "Владимир Михайлович Зазнобин. Видеоархив"
    INDEX 01 33:04:17
  TRACK 151 AUDIO
    TITLE "00:33:17.29252"
    PERFORMER "Владимир Михайлович Зазнобин. Видеоархив"
    INDEX 01 33:17:22
  TRACK 152 AUDIO
    TITLE "00:33:31.15522"
    PERFORMER "Владимир Михайлович Зазнобин. Видеоархив"
    INDEX 01 33:31:12
  TRACK 153 AUDIO
    TITLE "00:33:44.65197"
    PERFORMER "Владимир Михайлович Зазнобин. Видеоархив"
    INDEX 01 33:44:49
  TRACK 154 AUDIO
    TITLE "00:33:57.24642"
    PERFORMER "Владимир Михайлович Зазнобин. Видеоархив"
    INDEX 01 33:57:18
  TRACK 155 AUDIO
    TITLE "00:34:10.64238"
    PERFORMER "Владимир Михайлович Зазнобин. Видеоархив"
    INDEX 01 34:10:48
  TRACK 156 AUDIO
    TITLE "00:34:25.13946"
    PERFORMER "Владимир Михайлович Зазнобин. Видеоархив"
    INDEX 01 34:25:10
  TRACK 157 AUDIO
    TITLE "00:34:38.68916"
    PERFORMER "Владимир Михайлович Зазнобин. Видеоархив"
    INDEX 01 34:38:52
  TRACK 158 AUDIO
    TITLE "00:34:51.65975"
    PERFORMER "Владимир Михайлович Зазнобин. Видеоархив"
    INDEX 01 34:51:49
  TRACK 159 AUDIO
    TITLE "00:35:04.12834"
    PERFORMER "Владимир Михайлович Зазнобин. Видеоархив"
    INDEX 01 35:04:10
  TRACK 160 AUDIO
    TITLE "00:35:16.65032"
    PERFORMER "Владимир Михайлович Зазнобин. Видеоархив"
    INDEX 01 35:16:49
  TRACK 161 AUDIO
    TITLE "00:35:31.71163"
    PERFORMER "Владимир Михайлович Зазнобин. Видеоархив"
    INDEX 01 35:31:53
  TRACK 162 AUDIO
    TITLE "00:35:45.87202"
    PERFORMER "Владимир Михайлович Зазнобин. Видеоархив"
    INDEX 01 35:45:65
  TRACK 163 AUDIO
    TITLE "00:35:59.21832"
    PERFORMER "Владимир Михайлович Зазнобин. Видеоархив"
    INDEX 01 35:59:16
  TRACK 164 AUDIO
    TITLE "00:36:11.83968"
    PERFORMER "Владимир Михайлович Зазнобин. Видеоархив"
    INDEX 01 36:11:63
  TRACK 165 AUDIO
    TITLE "00:36:26.32746"
    PERFORMER "Владимир Михайлович Зазнобин. Видеоархив"
    INDEX 01 36:26:25
  TRACK 166 AUDIO
    TITLE "00:36:39.43553"
    PERFORMER "Владимир Михайлович Зазнобин. Видеоархив"
    INDEX 01 36:39:33
  TRACK 167 AUDIO
    TITLE "00:36:52.14095"
    PERFORMER "Владимир Михайлович Зазнобин. Видеоархив"
    INDEX 01 36:52:11
  TRACK 168 AUDIO
    TITLE "00:37:05.22440"
    PERFORMER "Владимир Михайлович Зазнобин. Видеоархив"
    INDEX 01 37:05:17
  TRACK 169 AUDIO
    TITLE "00:37:18.84329"
    PERFORMER "Владимир Михайлович Зазнобин. Видеоархив"
    INDEX 01 37:18:63
  TRACK 170 AUDIO
    TITLE "00:37:31.64390"
    PERFORMER "Владимир Михайлович Зазнобин. Видеоархив"
    INDEX 01 37:31:48
  TRACK 171 AUDIO
    TITLE "00:37:44.25413"
    PERFORMER "Владимир Михайлович Зазнобин. Видеоархив"
    INDEX 01 37:44:19
  TRACK 172 AUDIO
    TITLE "00:37:57.91528"
    PERFORMER "Владимир Михайлович Зазнобин. Видеоархив"
    INDEX 01 37:57:69
  TRACK 173 AUDIO
    TITLE "00:38:12.83218"
    PERFORMER "Владимир Михайлович Зазнобин. Видеоархив"
    INDEX 01 38:12:62
  TRACK 174 AUDIO
    TITLE "00:38:25.73637"
    PERFORMER "Владимир Михайлович Зазнобин. Видеоархив"
    INDEX 01 38:25:55
  TRACK 175 AUDIO
    TITLE "00:38:40.82787"
    PERFORMER "Владимир Михайлович Зазнобин. Видеоархив"
    INDEX 01 38:40:62
  TRACK 176 AUDIO
    TITLE "00:38:53.33639"
    PERFORMER "Владимир Михайлович Зазнобин. Видеоархив"
    INDEX 01 38:53:25
  TRACK 177 AUDIO
    TITLE "00:39:07.12989"
    PERFORMER "Владимир Михайлович Зазнобин. Видеоархив"
    INDEX 01 39:07:10
  TRACK 178 AUDIO
    TITLE "00:39:20.55002"
    PERFORMER "Владимир Михайлович Зазнобин. Видеоархив"
    INDEX 01 39:20:41
  TRACK 179 AUDIO
    TITLE "00:39:33.55823"
    PERFORMER "Владимир Михайлович Зазнобин. Видеоархив"
    INDEX 01 39:33:42
  TRACK 180 AUDIO
    TITLE "00:39:46.86320"
    PERFORMER "Владимир Михайлович Зазнобин. Видеоархив"
    INDEX 01 39:46:65
  TRACK 181 AUDIO
    TITLE "00:40:00.36925"
    PERFORMER "Владимир Михайлович Зазнобин. Видеоархив"
    INDEX 01 40:00:28
  TRACK 182 AUDIO
    TITLE "00:40:13.29526"
    PERFORMER "Владимир Михайлович Зазнобин. Видеоархив"
    INDEX 01 40:13:22
  TRACK 183 AUDIO
    TITLE "00:40:25.88365"
    PERFORMER "Владимир Михайлович Зазнобин. Видеоархив"
    INDEX 01 40:25:66
  TRACK 184 AUDIO
    TITLE "00:40:39.09805"
    PERFORMER "Владимир Михайлович Зазнобин. Видеоархив"
    INDEX 01 40:39:07
  TRACK 185 AUDIO
    TITLE "00:40:51.76771"
    PERFORMER "Владимир Михайлович Зазнобин. Видеоархив"
    INDEX 01 40:51:58
  TRACK 186 AUDIO
    TITLE "00:41:05.91093"
    PERFORMER "Владимир Михайлович Зазнобин. Видеоархив"
    INDEX 01 41:05:68
  TRACK 187 AUDIO
    TITLE "00:41:18.81279"
    PERFORMER "Владимир Михайлович Зазнобин. Видеоархив"
    INDEX 01 41:18:61
  TRACK 188 AUDIO
    TITLE "00:41:31.88973"
    PERFORMER "Владимир Михайлович Зазнобин. Видеоархив"
    INDEX 01 41:31:67
  TRACK 189 AUDIO
    TITLE "00:41:44.29005"
    PERFORMER "Владимир Михайлович Зазнобин. Видеоархив"
    INDEX 01 41:44:22
  TRACK 190 AUDIO
    TITLE "00:41:57.09948"
    PERFORMER "Владимир Михайлович Зазнобин. Видеоархив"
    INDEX 01 41:57:07
  TRACK 191 AUDIO
    TITLE "00:42:09.80723"
    PERFORMER "Владимир Михайлович Зазнобин. Видеоархив"
    INDEX 01 42:09:61
  TRACK 192 AUDIO
    TITLE "00:42:25.77878"
    PERFORMER "Владимир Михайлович Зазнобин. Видеоархив"
    INDEX 01 42:25:58
  TRACK 193 AUDIO
    TITLE "00:42:39.27367"
    PERFORMER "Владимир Михайлович Зазнобин. Видеоархив"
    INDEX 01 42:39:21
  TRACK 194 AUDIO
    TITLE "00:42:53.75311"
    PERFORMER "Владимир Михайлович Зазнобин. Видеоархив"
    INDEX 01 42:53:56
  TRACK 195 AUDIO
    TITLE "00:43:07.06410"
    PERFORMER "Владимир Михайлович Зазнобин. Видеоархив"
    INDEX 01 43:07:05
  TRACK 196 AUDIO
    TITLE "00:43:20.87385"
    PERFORMER "Владимир Михайлович Зазнобин. Видеоархив"
    INDEX 01 43:20:66
  TRACK 197 AUDIO
    TITLE "00:43:36.67449"
    PERFORMER "Владимир Михайлович Зазнобин. Видеоархив"
    INDEX 01 43:36:51
  TRACK 198 AUDIO
    TITLE "00:43:49.44401"
    PERFORMER "Владимир Михайлович Зазнобин. Видеоархив"
    INDEX 01 43:49:33
  TRACK 199 AUDIO
    TITLE "00:44:04.19975"
    PERFORMER "Владимир Михайлович Зазнобин. Видеоархив"
    INDEX 01 44:04:15
  TRACK 200 AUDIO
    TITLE "00:44:16.77887"
    PERFORMER "Владимир Михайлович Зазнобин. Видеоархив"
    INDEX 01 44:16:58
  TRACK 201 AUDIO
    TITLE "00:44:30.59930"
    PERFORMER "Владимир Михайлович Зазнобин. Видеоархив"
    INDEX 01 44:30:45
  TRACK 202 AUDIO
    TITLE "00:44:43.22252"
    PERFORMER "Владимир Михайлович Зазнобин. Видеоархив"
    INDEX 01 44:43:17
  TRACK 203 AUDIO
    TITLE "00:44:56.16898"
    PERFORMER "Владимир Михайлович Зазнобин. Видеоархив"
    INDEX 01 44:56:13
  TRACK 204 AUDIO
    TITLE "00:45:08.73508"
    PERFORMER "Владимир Михайлович Зазнобин. Видеоархив"
    INDEX 01 45:08:55
  TRACK 205 AUDIO
    TITLE "00:45:22.75288"
    PERFORMER "Владимир Михайлович Зазнобин. Видеоархив"
    INDEX 01 45:22:56
  TRACK 206 AUDIO
    TITLE "00:45:35.51265"
    PERFORMER "Владимир Михайлович Зазнобин. Видеоархив"
    INDEX 01 45:35:38
  TRACK 207 AUDIO
    TITLE "00:45:48.77349"
    PERFORMER "Владимир Михайлович Зазнобин. Видеоархив"
    INDEX 01 45:48:58
  TRACK 208 AUDIO
    TITLE "00:46:01.61127"
    PERFORMER "Владимир Михайлович Зазнобин. Видеоархив"
    INDEX 01 46:01:46
  TRACK 209 AUDIO
    TITLE "00:46:13.93635"
    PERFORMER "Владимир Михайлович Зазнобин. Видеоархив"
    INDEX 01 46:13:70
  TRACK 210 AUDIO
    TITLE "00:46:26.41188"
    PERFORMER "Владимир Михайлович Зазнобин. Видеоархив"
    INDEX 01 46:26:31
  TRACK 211 AUDIO
    TITLE "00:46:39.12615"
    PERFORMER "Владимир Михайлович Зазнобин. Видеоархив"
    INDEX 01 46:39:09
  TRACK 212 AUDIO
    TITLE "00:46:51.87150"
    PERFORMER "Владимир Михайлович Зазнобин. Видеоархив"
    INDEX 01 46:51:65
  TRACK 213 AUDIO
    TITLE "00:47:04.48404"
    PERFORMER "Владимир Михайлович Зазнобин. Видеоархив"
    INDEX 01 47:04:36
  TRACK 214 AUDIO
    TITLE "00:47:17.76902"
    PERFORMER "Владимир Михайлович Зазнобин. Видеоархив"
    INDEX 01 47:17:58
  TRACK 215 AUDIO
    TITLE "00:47:30.39689"
    PERFORMER "Владимир Михайлович Зазнобин. Видеоархив"
    INDEX 01 47:30:30
  TRACK 216 AUDIO
    TITLE "00:47:43.14227"
    PERFORMER "Владимир Михайлович Зазнобин. Видеоархив"
    INDEX 01 47:43:11
  TRACK 217 AUDIO
    TITLE "00:47:55.96934"
    PERFORMER "Владимир Михайлович Зазнобин. Видеоархив"
    INDEX 01 47:55:73
  TRACK 218 AUDIO
    TITLE "00:48:08.55077"
    PERFORMER "Владимир Михайлович Зазнобин. Видеоархив"
    INDEX 01 48:08:41
  TRACK 219 AUDIO
    TITLE "00:48:21.12803"
    PERFORMER "Владимир Михайлович Зазнобин. Видеоархив"
    INDEX 01 48:21:10
  TRACK 220 AUDIO
    TITLE "00:48:34.83748"
    PERFORMER "Владимир Михайлович Зазнобин. Видеоархив"
    INDEX 01 48:34:63
  TRACK 221 AUDIO
    TITLE "00:48:47.93206"
    PERFORMER "Владимир Михайлович Зазнобин. Видеоархив"
    INDEX 01 48:47:70
  TRACK 222 AUDIO
    TITLE "00:49:01.94757"
    PERFORMER "Владимир Михайлович Зазнобин. Видеоархив"
    INDEX 01 49:01:71
  TRACK 223 AUDIO
    TITLE "00:49:16.70703"
    PERFORMER "Владимир Михайлович Зазнобин. Видеоархив"
    INDEX 01 49:16:53
  TRACK 224 AUDIO
    TITLE "00:49:31.04712"
    PERFORMER "Владимир Михайлович Зазнобин. Видеоархив"
    INDEX 01 49:31:04
  TRACK 225 AUDIO
    TITLE "00:49:44.82252"
    PERFORMER "Владимир Михайлович Зазнобин. Видеоархив"
    INDEX 01 49:44:62
  TRACK 226 AUDIO
    TITLE "00:49:58.81247"
    PERFORMER "Владимир Михайлович Зазнобин. Видеоархив"
    INDEX 01 49:58:61
  TRACK 227 AUDIO
    TITLE "00:50:11.53322"
    PERFORMER "Владимир Михайлович Зазнобин. Видеоархив"
    INDEX 01 50:11:40
  TRACK 228 AUDIO
    TITLE "00:50:24.27859"
    PERFORMER "Владимир Михайлович Зазнобин. Видеоархив"
    INDEX 01 50:24:21
  TRACK 229 AUDIO
    TITLE "00:50:39.06172"
    PERFORMER "Владимир Михайлович Зазнобин. Видеоархив"
    INDEX 01 50:39:05
  TRACK 230 AUDIO
    TITLE "00:50:52.66390"
    PERFORMER "Владимир Михайлович Зазнобин. Видеоархив"
    INDEX 01 50:52:50
  TRACK 231 AUDIO
    TITLE "00:51:05.63032"
    PERFORMER "Владимир Михайлович Зазнобин. Видеоархив"
    INDEX 01 51:05:47
  TRACK 232 AUDIO
    TITLE "00:51:20.18544"
    PERFORMER "Владимир Михайлович Зазнобин. Видеоархив"
    INDEX 01 51:20:14
  TRACK 233 AUDIO
    TITLE "00:51:33.00465"
    PERFORMER "Владимир Михайлович Зазнобин. Видеоархив"
    INDEX 01 51:33:00
  TRACK 234 AUDIO
    TITLE "00:51:47.02245"
    PERFORMER "Владимир Михайлович Зазнобин. Видеоархив"
    INDEX 01 51:47:02
  TRACK 235 AUDIO
    TITLE "00:52:00.60977"
    PERFORMER "Владимир Михайлович Зазнобин. Видеоархив"
    INDEX 01 52:00:46
  TRACK 236 AUDIO
    TITLE "00:52:13.21304"
    PERFORMER "Владимир Михайлович Зазнобин. Видеоархив"
    INDEX 01 52:13:16
  TRACK 237 AUDIO
    TITLE "00:52:27.02279"
    PERFORMER "Владимир Михайлович Зазнобин. Видеоархив"
    INDEX 01 52:27:02
  TRACK 238 AUDIO
    TITLE "00:52:40.69603"
    PERFORMER "Владимир Михайлович Зазнобин. Видеоархив"
    INDEX 01 52:40:52
  TRACK 239 AUDIO
    TITLE "00:52:53.79107"
    PERFORMER "Владимир Михайлович Зазнобин. Видеоархив"
    INDEX 01 52:53:59
  TRACK 240 AUDIO
    TITLE "00:53:06.96973"
    PERFORMER "Владимир Михайлович Зазнобин. Видеоархив"
    INDEX 01 53:06:73
  TRACK 241 AUDIO
    TITLE "00:53:20.64388"
    PERFORMER "Владимир Михайлович Зазнобин. Видеоархив"
    INDEX 01 53:20:48
  TRACK 242 AUDIO
    TITLE "00:53:34.03707"
    PERFORMER "Владимир Михайлович Зазнобин. Видеоархив"
    INDEX 01 53:34:03
  TRACK 243 AUDIO
    TITLE "00:53:47.10054"
    PERFORMER "Владимир Михайлович Зазнобин. Видеоархив"
    INDEX 01 53:47:08
  TRACK 244 AUDIO
    TITLE "00:53:59.76603"
    PERFORMER "Владимир Михайлович Зазнобин. Видеоархив"
    INDEX 01 53:59:57
  TRACK 245 AUDIO
    TITLE "00:54:12.76773"
    PERFORMER "Владимир Михайлович Зазнобин. Видеоархив"
    INDEX 01 54:12:58
  TRACK 246 AUDIO
    TITLE "00:54:26.61698"
    PERFORMER "Владимир Михайлович Зазнобин. Видеоархив"
    INDEX 01 54:26:46
  TRACK 247 AUDIO
    TITLE "00:54:40.90832"
    PERFORMER "Владимир Михайлович Зазнобин. Видеоархив"
    INDEX 01 54:40:68
  TRACK 248 AUDIO
    TITLE "00:54:53.95370"
    PERFORMER "Владимир Михайлович Зазнобин. Видеоархив"
    INDEX 01 54:53:72
  TRACK 249 AUDIO
    TITLE "00:55:07.64596"
    PERFORMER "Владимир Михайлович Зазнобин. Видеоархив"
    INDEX 01 55:07:48
  TRACK 250 AUDIO
    TITLE "00:55:20.45912"
    PERFORMER "Владимир Михайлович Зазнобин. Видеоархив"
    INDEX 01 55:20:34
  TRACK 251 AUDIO
    TITLE "00:55:35.10388"
    PERFORMER "Владимир Михайлович Зазнобин. Видеоархив"
    INDEX 01 55:35:08
  TRACK 252 AUDIO
    TITLE "00:55:47.57941"
    PERFORMER "Владимир Михайлович Зазнобин. Видеоархив"
    INDEX 01 55:47:43
  TRACK 253 AUDIO
    TITLE "00:55:59.93980"
    PERFORMER "Владимир Михайлович Зазнобин. Видеоархив"
    INDEX 01 55:59:70
  TRACK 254 AUDIO
    TITLE "00:56:12.75388"
    PERFORMER "Владимир Михайлович Зазнобин. Видеоархив"
    INDEX 01 56:12:57
  TRACK 255 AUDIO
    TITLE "00:56:25.68268"
    PERFORMER "Владимир Михайлович Зазнобин. Видеоархив"
    INDEX 01 56:25:51
  TRACK 256 AUDIO
    TITLE "00:56:38.23531"
    PERFORMER "Владимир Михайлович Зазнобин. Видеоархив"
    INDEX 01 56:38:18
  TRACK 257 AUDIO
    TITLE "00:56:51.56211"
    PERFORMER "Владимир Михайлович Зазнобин. Видеоархив"
    INDEX 01 56:51:42
  TRACK 258 AUDIO
    TITLE "00:57:04.67016"
    PERFORMER "Владимир Михайлович Зазнобин. Видеоархив"
    INDEX 01 57:04:50
  TRACK 259 AUDIO
    TITLE "00:57:18.76878"
    PERFORMER "Владимир Михайлович Зазнобин. Видеоархив"
    INDEX 01 57:18:58
  TRACK 260 AUDIO
    TITLE "00:57:33.12839"
    PERFORMER "Владимир Михайлович Зазнобин. Видеоархив"
    INDEX 01 57:33:10
  TRACK 261 AUDIO
    TITLE "00:57:46.76029"
    PERFORMER "Владимир Михайлович Зазнобин. Видеоархив"
    INDEX 01 57:46:57
  TRACK 262 AUDIO
    TITLE "00:58:06.09780"
    PERFORMER "Владимир Михайлович Зазнобин. Видеоархив"
    INDEX 01 58:06:07
  TRACK 263 AUDIO
    TITLE "00:58:19.33218"
    PERFORMER "Владимир Михайлович Зазнобин. Видеоархив"
    INDEX 01 58:19:25
  TRACK 264 AUDIO
    TITLE "00:58:32.11701"
    PERFORMER "Владимир Михайлович Зазнобин. Видеоархив"
    INDEX 01 58:32:09
  TRACK 265 AUDIO
    TITLE "00:58:45.22739"
    PERFORMER "Владимир Михайлович Зазнобин. Видеоархив"
    INDEX 01 58:45:17
  TRACK 266 AUDIO
    TITLE "00:58:58.35959"
    PERFORMER "Владимир Михайлович Зазнобин. Видеоархив"
    INDEX 01 58:58:27
  TRACK 267 AUDIO
    TITLE "00:59:11.39891"
    PERFORMER "Владимир Михайлович Зазнобин. Видеоархив"
    INDEX 01 59:11:30
  TRACK 268 AUDIO
    TITLE "00:59:25.62431"
    PERFORMER "Владимир Михайлович Зазнобин. Видеоархив"
    INDEX 01 59:25:47
  TRACK 269 AUDIO
    TITLE "00:59:38.47694"
    PERFORMER "Владимир Михайлович Зазнобин. Видеоархив"
    INDEX 01 59:38:36
  TRACK 270 AUDIO
    TITLE "00:59:51.01658"
    PERFORMER "Владимир Михайлович Зазнобин. Видеоархив"
    INDEX 01 59:51:01
  TRACK 271 AUDIO
    TITLE "01:00:03.72433"
    PERFORMER "Владимир Михайлович Зазнобин. Видеоархив"
    INDEX 01 60:03:54
  TRACK 272 AUDIO
    TITLE "01:00:16.16644"
    PERFORMER "Владимир Михайлович Зазнобин. Видеоархив"
    INDEX 01 60:16:12
  TRACK 273 AUDIO
    TITLE "01:00:30.36118"
    PERFORMER "Владимир Михайлович Зазнобин. Видеоархив"
    INDEX 01 60:30:27
  TRACK 274 AUDIO
    TITLE "01:00:43.55236"
    PERFORMER "Владимир Михайлович Зазнобин. Видеоархив"
    INDEX 01 60:43:41
  TRACK 275 AUDIO
    TITLE "01:00:56.05857"
    PERFORMER "Владимир Михайлович Зазнобин. Видеоархив"
    INDEX 01 60:56:04
  TRACK 276 AUDIO
    TITLE "01:01:08.47653"
    PERFORMER "Владимир Михайлович Зазнобин. Видеоархив"
    INDEX 01 61:08:36
  TRACK 277 AUDIO
    TITLE "01:01:20.96971"
    PERFORMER "Владимир Михайлович Зазнобин. Видеоархив"
    INDEX 01 61:20:73
  TRACK 278 AUDIO
    TITLE "01:01:34.00719"
    PERFORMER "Владимир Михайлович Зазнобин. Видеоархив"
    INDEX 01 61:34:01
  TRACK 279 AUDIO
    TITLE "01:01:46.86726"
    PERFORMER "Владимир Михайлович Зазнобин. Видеоархив"
    INDEX 01 61:46:65
  TRACK 280 AUDIO
    TITLE "01:02:00.90177"
    PERFORMER "Владимир Михайлович Зазнобин. Видеоархив"
    INDEX 01 62:00:68
  TRACK 281 AUDIO
    TITLE "01:02:13.71540"
    PERFORMER "Владимир Михайлович Зазнобин. Видеоархив"
    INDEX 01 62:13:54
  TRACK 282 AUDIO
    TITLE "01:02:26.17980"
    PERFORMER "Владимир Михайлович Зазнобин. Видеоархив"
    INDEX 01 62:26:13
  TRACK 283 AUDIO
    TITLE "01:02:39.60875"
    PERFORMER "Владимир Михайлович Зазнобин. Видеоархив"
    INDEX 01 62:39:46
  TRACK 284 AUDIO
    TITLE "01:02:52.29839"
    PERFORMER "Владимир Михайлович Зазнобин. Видеоархив"
    INDEX 01 62:52:22
  TRACK 285 AUDIO
    TITLE "01:03:06.07240"
    PERFORMER "Владимир Михайлович Зазнобин. Видеоархив"
    INDEX 01 63:06:05
  TRACK 286 AUDIO
    TITLE "01:03:19.52923"
    PERFORMER "Владимир Михайлович Зазнобин. Видеоархив"
    INDEX 01 63:19:40
  TRACK 287 AUDIO
    TITLE "01:03:32.39392"
    PERFORMER "Владимир Михайлович Зазнобин. Видеоархив"
    INDEX 01 63:32:30
  TRACK 288 AUDIO
    TITLE "01:03:45.27862"
    PERFORMER "Владимир Михайлович Зазнобин. Видеоархив"
    INDEX 01 63:45:21
  TRACK 289 AUDIO
    TITLE "01:03:58.54828"
    PERFORMER "Владимир Михайлович Зазнобин. Видеоархив"
    INDEX 01 63:58:41
  TRACK 290 AUDIO
    TITLE "01:04:12.05200"
    PERFORMER "Владимир Михайлович Зазнобин. Видеоархив"
    INDEX 01 64:12:04
  TRACK 291 AUDIO
    TITLE "01:04:26.91224"
    PERFORMER "Владимир Михайлович Зазнобин. Видеоархив"
    INDEX 01 64:26:68
  TRACK 292 AUDIO
    TITLE "01:04:40.48145"
    PERFORMER "Владимир Михайлович Зазнобин. Видеоархив"
    INDEX 01 64:40:36
  TRACK 293 AUDIO
    TITLE "01:04:53.33036"
    PERFORMER "Владимир Михайлович Зазнобин. Видеоархив"
    INDEX 01 64:53:25
  TRACK 294 AUDIO
    TITLE "01:05:06.80345"
    PERFORMER "Владимир Михайлович Зазнобин. Видеоархив"
    INDEX 01 65:06:60
  TRACK 295 AUDIO
    TITLE "01:05:21.21460"
    PERFORMER "Владимир Михайлович Зазнобин. Видеоархив"
    INDEX 01 65:21:16
  TRACK 296 AUDIO
    TITLE "01:05:33.98968"
    PERFORMER "Владимир Михайлович Зазнобин. Видеоархив"
    INDEX 01 65:33:74
  TRACK 297 AUDIO
    TITLE "01:05:47.39215"
    PERFORMER "Владимир Михайлович Зазнобин. Видеоархив"
    INDEX 01 65:47:29
  TRACK 298 AUDIO
    TITLE "01:06:00.79651"
    PERFORMER "Владимир Михайлович Зазнобин. Видеоархив"
    INDEX 01 66:00:60
  TRACK 299 AUDIO
    TITLE "01:06:15.28383"
    PERFORMER "Владимир Михайлович Зазнобин. Видеоархив"
    INDEX 01 66:15:21
  TRACK 300 AUDIO
    TITLE "01:06:27.76819"
    PERFORMER "Владимир Михайлович Зазнобин. Видеоархив"
    INDEX 01 66:27:58
  TRACK 301 AUDIO
    TITLE "01:06:41.01138"
    PERFORMER "Владимир Михайлович Зазнобин. Видеоархив"
    INDEX 01 66:41:01
  TRACK 302 AUDIO
    TITLE "01:06:53.51295"
    PERFORMER "Владимир Михайлович Зазнобин. Видеоархив"
    INDEX 01 66:53:38
  TRACK 303 AUDIO
    TITLE "01:07:06.01497"
    PERFORMER "Владимир Михайлович Зазнобин. Видеоархив"
    INDEX 01 67:06:01
  TRACK 304 AUDIO
    TITLE "01:07:19.06542"
    PERFORMER "Владимир Михайлович Зазнобин. Видеоархив"
    INDEX 01 67:19:05
  TRACK 305 AUDIO
    TITLE "01:07:31.95893"
    PERFORMER "Владимир Михайлович Зазнобин. Видеоархив"
    INDEX 01 67:31:72
  TRACK 306 AUDIO
    TITLE "01:07:44.75955"
    PERFORMER "Владимир Михайлович Зазнобин. Видеоархив"
    INDEX 01 67:44:57
  TRACK 307 AUDIO
    TITLE "01:07:58.93619"
    PERFORMER "Владимир Михайлович Зазнобин. Видеоархив"
    INDEX 01 67:58:70
  TRACK 308 AUDIO
    TITLE "01:08:11.82227"
    PERFORMER "Владимир Михайлович Зазнобин. Видеоархив"
    INDEX 01 68:11:62
  TRACK 309 AUDIO
    TITLE "01:08:24.20029"
    PERFORMER "Владимир Михайлович Зазнобин. Видеоархив"
    INDEX 01 68:24:15
  TRACK 310 AUDIO
    TITLE "01:08:37.67150"
    PERFORMER "Владимир Михайлович Зазнобин. Видеоархив"
    INDEX 01 68:37:50
  TRACK 311 AUDIO
    TITLE "01:08:50.41177"
    PERFORMER "Владимир Михайлович Зазнобин. Видеоархив"
    INDEX 01 68:50:31
  TRACK 312 AUDIO
    TITLE "01:09:04.79365"
    PERFORMER "Владимир Михайлович Зазнобин. Видеоархив"
    INDEX 01 69:04:60
  TRACK 313 AUDIO
    TITLE "01:09:18.21984"
    PERFORMER "Владимир Михайлович Зазнобин. Видеоархив"
    INDEX 01 69:18:16
  TRACK 314 AUDIO
    TITLE "01:09:30.78825"
    PERFORMER "Владимир Михайлович Зазнобин. Видеоархив"
    INDEX 01 69:30:59
  TRACK 315 AUDIO
    TITLE "01:09:45.54168"
    PERFORMER "Владимир Михайлович Зазнобин. Видеоархив"
    INDEX 01 69:45:41
  TRACK 316 AUDIO
    TITLE "01:09:59.41227"
    PERFORMER "Владимир Михайлович Зазнобин. Видеоархив"
    INDEX 01 69:59:31
  TRACK 317 AUDIO
    TITLE "01:10:12.35454"
    PERFORMER "Владимир Михайлович Зазнобин. Видеоархив"
    INDEX 01 70:12:27
  TRACK 318 AUDIO
    TITLE "01:10:25.50440"
    PERFORMER "Владимир Михайлович Зазнобин. Видеоархив"
    INDEX 01 70:25:38
  TRACK 319 AUDIO
    TITLE "01:10:39.38615"
    PERFORMER "Владимир Михайлович Зазнобин. Видеоархив"
    INDEX 01 70:39:29
  TRACK 320 AUDIO
    TITLE "01:10:52.68227"
    PERFORMER "Владимир Михайлович Зазнобин. Видеоархив"
    INDEX 01 70:52:51
  TRACK 321 AUDIO
    TITLE "01:11:05.71045"
    PERFORMER "Владимир Михайлович Зазнобин. Видеоархив"
    INDEX 01 71:05:53
  TRACK 322 AUDIO
    TITLE "01:11:19.12594"
    PERFORMER "Владимир Михайлович Зазнобин. Видеоархив"
    INDEX 01 71:19:09
  TRACK 323 AUDIO
    TITLE "01:11:31.75381"
    PERFORMER "Владимир Михайлович Зазнобин. Видеоархив"
    INDEX 01 71:31:57
  TRACK 324 AUDIO
    TITLE "01:11:44.78431"
    PERFORMER "Владимир Михайлович Зазнобин. Видеоархив"
    INDEX 01 71:44:59
  TRACK 325 AUDIO
    TITLE "01:11:57.45213"
    PERFORMER "Владимир Михайлович Зазнобин. Видеоархив"
    INDEX 01 71:57:34
  TRACK 326 AUDIO
    TITLE "01:12:09.98293"
    PERFORMER "Владимир Михайлович Зазнобин. Видеоархив"
    INDEX 01 72:09:74
  TRACK 327 AUDIO
    TITLE "01:12:22.42737"
    PERFORMER "Владимир Михайлович Зазнобин. Видеоархив"
    INDEX 01 72:22:32
  TRACK 328 AUDIO
    TITLE "01:12:34.77009"
    PERFORMER "Владимир Михайлович Зазнобин. Видеоархив"
    INDEX 01 72:34:58
  TRACK 329 AUDIO
    TITLE "01:12:47.39610"
    PERFORMER "Владимир Михайлович Зазнобин. Видеоархив"
    INDEX 01 72:47:30
  TRACK 330 AUDIO
    TITLE "01:13:01.24719"
    PERFORMER "Владимир Михайлович Зазнобин. Видеоархив"
    INDEX 01 73:01:19
  TRACK 331 AUDIO
    TITLE "01:13:16.52444"
    PERFORMER "Владимир Михайлович Зазнобин. Видеоархив"
    INDEX 01 73:16:39
  TRACK 332 AUDIO
    TITLE "01:13:32.42959"
    PERFORMER "Владимир Михайлович Зазнобин. Видеоархив"
    INDEX 01 73:32:32
  TRACK 333 AUDIO
    TITLE "01:13:45.77032"
    PERFORMER "Владимир Михайлович Зазнобин. Видеоархив"
    INDEX 01 73:45:58
  TRACK 334 AUDIO
    TITLE "01:13:59.98875"
    PERFORMER "Владимир Михайлович Зазнобин. Видеоархив"
    INDEX 01 73:59:74
  TRACK 335 AUDIO
    TITLE "01:14:13.48272"
    PERFORMER "Владимир Михайлович Зазнобин. Видеоархив"
    INDEX 01 74:13:36
  TRACK 336 AUDIO
    TITLE "01:14:25.85424"
    PERFORMER "Владимир Михайлович Зазнобин. Видеоархив"
    INDEX 01 74:25:64
  TRACK 337 AUDIO
    TITLE "01:14:38.71476"
    PERFORMER "Владимир Михайлович Зазнобин. Видеоархив"
    INDEX 01 74:38:54
  TRACK 338 AUDIO
    TITLE "01:14:51.51957"
    PERFORMER "Владимир Михайлович Зазнобин. Видеоархив"
    INDEX 01 74:51:39
  TRACK 339 AUDIO
    TITLE "01:15:03.94404"
    PERFORMER "Владимир Михайлович Зазнобин. Видеоархив"
    INDEX 01 75:03:71
  TRACK 340 AUDIO
    TITLE "01:15:17.49465"
    PERFORMER "Владимир Михайлович Зазнобин. Видеоархив"
    INDEX 01 75:17:37
  TRACK 341 AUDIO
    TITLE "01:15:31.42703"
    PERFORMER "Владимир Михайлович Зазнобин. Видеоархив"
    INDEX 01 75:31:32
  TRACK 342 AUDIO
    TITLE "01:15:44.17007"
    PERFORMER "Владимир Михайлович Зазнобин. Видеоархив"
    INDEX 01 75:44:13
  TRACK 343 AUDIO
    TITLE "01:15:57.29390"
    PERFORMER "Владимир Михайлович Зазнобин. Видеоархив"
    INDEX 01 75:57:22
  TRACK 344 AUDIO
    TITLE "01:16:11.81746"
    PERFORMER "Владимир Михайлович Зазнобин. Видеоархив"
    INDEX 01 76:11:61
  TRACK 345 AUDIO
    TITLE "01:16:25.78279"
    PERFORMER "Владимир Михайлович Зазнобин. Видеоархив"
    INDEX 01 76:25:59
  TRACK 346 AUDIO
    TITLE "01:16:39.02134"
    PERFORMER "Владимир Михайлович Зазнобин. Видеоархив"
    INDEX 01 76:39:02
  TRACK 347 AUDIO
    TITLE "01:16:51.65803"
    PERFORMER "Владимир Михайлович Зазнобин. Видеоархив"
    INDEX 01 76:51:49
  TRACK 348 AUDIO
    TITLE "01:17:04.33467"
    PERFORMER "Владимир Михайлович Зазнобин. Видеоархив"
    INDEX 01 77:04:25
  TRACK 349 AUDIO
    TITLE "01:17:18.18204"
    PERFORMER "Владимир Михайлович Зазнобин. Видеоархив"
    INDEX 01 77:18:14
  TRACK 350 AUDIO
    TITLE "01:17:32.21844"
    PERFORMER "Владимир Михайлович Зазнобин. Видеоархив"
    INDEX 01 77:32:16
  TRACK 351 AUDIO
    TITLE "01:17:46.23950"
    PERFORMER "Владимир Михайлович Зазнобин. Видеоархив"
    INDEX 01 77:46:18
  TRACK 352 AUDIO
    TITLE "01:17:58.82741"
    PERFORMER "Владимир Михайлович Зазнобин. Видеоархив"
    INDEX 01 77:58:62
  TRACK 353 AUDIO
    TITLE "01:18:11.29181"
    PERFORMER "Владимир Михайлович Зазнобин. Видеоархив"
    INDEX 01 78:11:22
  TRACK 354 AUDIO
    TITLE "01:18:25.79540"
    PERFORMER "Владимир Михайлович Зазнобин. Видеоархив"
    INDEX 01 78:25:60
  TRACK 355 AUDIO
    TITLE "01:18:38.99633"
    PERFORMER "Владимир Михайлович Зазнобин. Видеоархив"
    INDEX 01 78:39:00
  TRACK 356 AUDIO
    TITLE "01:18:51.77653"
    PERFORMER "Владимир Михайлович Зазнобин. Видеоархив"
    INDEX 01 78:51:58
  TRACK 357 AUDIO
    TITLE "01:19:04.41787"
    PERFORMER "Владимир Михайлович Зазнобин. Видеоархив"
    INDEX 01 79:04:31
  TRACK 358 AUDIO
    TITLE "01:19:20.65503"
    PERFORMER "Владимир Михайлович Зазнобин. Видеоархив"
    INDEX 01 79:20:49
